<?xml version="1.0" encoding="utf-8"?>
<!-- Generator: Adobe Illustrator 19.1.0, SVG Export Plug-In . SVG Version: 6.00 Build 0)  -->
<svg version="1.1" id="Layer_1" xmlns="http://www.w3.org/2000/svg" xmlns:xlink="http://www.w3.org/1999/xlink" x="0px" y="0px"
	 viewBox="-167 90.5 129.5 19.8" style="enable-background:new -167 90.5 129.5 19.8;" xml:space="preserve">
<style type="text/css">
	.st0{fill:#232323;}
	.st1{fill:none;stroke:#38BEA9;stroke-linecap:round;stroke-miterlimit:10;}
	.st2{fill:none;stroke:#FFFFFF;stroke-width:0.5;stroke-miterlimit:10;}
	.st3{fill:url(#SVGID_1_);}
	.st4{fill:url(#SVGID_2_);}
	.st5{fill:url(#SVGID_3_);}
	.st6{fill:url(#SVGID_4_);}
	.st7{fill:url(#SVGID_5_);}
	.st8{fill:url(#SVGID_6_);}
	.st9{fill:url(#SVGID_7_);}
	.st10{fill:url(#SVGID_8_);}
	.st11{fill:url(#SVGID_9_);}
</style>
<g>
	<path class="st0" d="M-164.9,185.6c0.2,0,0.4,0.2,0.4,0.4v8.2c0,0.2-0.2,0.4-0.4,0.4h-8.2c-0.2,0-0.4-0.2-0.4-0.4V186
		c0-0.2,0.2-0.4,0.4-0.4L-164.9,185.6 M-164.9,185.1h-8.2c-0.5,0-0.9,0.4-0.9,0.9v8.2c0,0.5,0.4,0.9,0.9,0.9h8.2
		c0.5,0,0.9-0.4,0.9-0.9V186C-164,185.5-164.4,185.1-164.9,185.1L-164.9,185.1z"/>
</g>
<path class="st1" d="M-171.9,188.9l1.9,3c0.2,0.3,0.6,0.3,0.8,0l5.3-8.7"/>
<polyline class="st2" points="-132.7,171.4 -129,174.5 -125.4,171.4 "/>
<g>
	
		<linearGradient id="SVGID_1_" gradientUnits="userSpaceOnUse" x1="-158.95" y1="215.2437" x2="-158.95" y2="198.6146" gradientTransform="matrix(1 0 0 -1 0 304)">
		<stop  offset="0" style="stop-color:#01B99F"/>
		<stop  offset="1" style="stop-color:#02CAAE"/>
	</linearGradient>
	<path class="st3" d="M-161.1,95.1h-5.3v-3.7h14.9v3.7h-5.3v13.8h-4.3C-161.1,108.9-161.1,95.1-161.1,95.1z"/>
	
		<linearGradient id="SVGID_2_" gradientUnits="userSpaceOnUse" x1="-143.7" y1="215.2437" x2="-143.7" y2="198.6146" gradientTransform="matrix(1 0 0 -1 0 304)">
		<stop  offset="0" style="stop-color:#01B99F"/>
		<stop  offset="1" style="stop-color:#02CAAE"/>
	</linearGradient>
	<path class="st4" d="M-151.2,91.5h4.3v7h6.4v-7h4.3V109h-4.3v-6.8h-6.4v6.8h-4.3C-151.2,109-151.2,91.5-151.2,91.5z"/>
	
		<linearGradient id="SVGID_3_" gradientUnits="userSpaceOnUse" x1="-131.85" y1="215.2437" x2="-131.85" y2="198.6146" gradientTransform="matrix(1 0 0 -1 0 304)">
		<stop  offset="0" style="stop-color:#01B99F"/>
		<stop  offset="1" style="stop-color:#02CAAE"/>
	</linearGradient>
	<path class="st5" d="M-134,91.5h4.3V109h-4.3V91.5z"/>
	
		<linearGradient id="SVGID_4_" gradientUnits="userSpaceOnUse" x1="-122.6" y1="215.2437" x2="-122.6" y2="198.6146" gradientTransform="matrix(1 0 0 -1 0 304)">
		<stop  offset="0" style="stop-color:#01B99F"/>
		<stop  offset="1" style="stop-color:#02CAAE"/>
	</linearGradient>
	<path class="st6" d="M-126.5,103.5c0,0,2,1.8,4.2,1.8c0.9,0,1.8-0.3,1.8-1.4c0-2.1-7.9-2-7.9-7.4c0-3.2,2.7-5.4,6.2-5.4
		c3.8,0,5.6,2,5.6,2l-1.8,3.5c0,0-1.8-1.5-3.9-1.5c-0.9,0-1.9,0.4-1.9,1.4c0,2.2,7.9,1.8,7.9,7.3c0,2.9-2.2,5.4-6.2,5.4
		c-4.1,0-6.4-2.5-6.4-2.5L-126.5,103.5z"/>
	
		<linearGradient id="SVGID_5_" gradientUnits="userSpaceOnUse" x1="-109.25" y1="215.2437" x2="-109.25" y2="198.6146" gradientTransform="matrix(1 0 0 -1 0 304)">
		<stop  offset="0" style="stop-color:#01B99F"/>
		<stop  offset="1" style="stop-color:#02CAAE"/>
	</linearGradient>
	<path class="st7" d="M-111.4,91.5h4.3V109h-4.3V91.5z"/>
	
		<linearGradient id="SVGID_6_" gradientUnits="userSpaceOnUse" x1="-100" y1="215.2437" x2="-100" y2="198.6146" gradientTransform="matrix(1 0 0 -1 0 304)">
		<stop  offset="0" style="stop-color:#01B99F"/>
		<stop  offset="1" style="stop-color:#02CAAE"/>
	</linearGradient>
	<path class="st8" d="M-103.9,103.5c0,0,2,1.8,4.2,1.8c0.9,0,1.8-0.3,1.8-1.4c0-2.1-7.9-2-7.9-7.4c0-3.2,2.7-5.4,6.2-5.4
		c3.8,0,5.6,2,5.6,2l-1.8,3.5c0,0-1.8-1.5-3.9-1.5c-0.9,0-1.9,0.4-1.9,1.4c0,2.2,7.9,1.8,7.9,7.3c0,2.9-2.2,5.4-6.2,5.4
		c-4.1,0-6.4-2.5-6.4-2.5L-103.9,103.5z"/>
	
		<linearGradient id="SVGID_7_" gradientUnits="userSpaceOnUse" x1="-83.8" y1="215.2437" x2="-83.8" y2="198.6146" gradientTransform="matrix(1 0 0 -1 0 304)">
		<stop  offset="0" style="stop-color:#01B99F"/>
		<stop  offset="1" style="stop-color:#02CAAE"/>
	</linearGradient>
	<path class="st9" d="M-87.7,103.5c0,0,2,1.8,4.2,1.8c0.9,0,1.8-0.3,1.8-1.4c0-2.1-7.9-2-7.9-7.4c0-3.2,2.7-5.4,6.2-5.4
		c3.8,0,5.6,2,5.6,2l-1.8,3.5c0,0-1.8-1.5-3.9-1.5c-0.9,0-1.9,0.4-1.9,1.4c0,2.2,7.9,1.8,7.9,7.3c0,2.9-2.2,5.4-6.2,5.4
		c-4.1,0-6.4-2.5-6.4-2.5L-87.7,103.5z"/>
	
		<linearGradient id="SVGID_8_" gradientUnits="userSpaceOnUse" x1="-67.45" y1="215.2437" x2="-67.45" y2="198.6146" gradientTransform="matrix(1 0 0 -1 0 304)">
		<stop  offset="0" style="stop-color:#01B99F"/>
		<stop  offset="1" style="stop-color:#02CAAE"/>
	</linearGradient>
	<path class="st10" d="M-75.5,91.5h4.6l2.5,7.4c0.4,1.1,0.9,2.9,0.9,2.9l0,0c0,0,0.5-1.8,0.9-2.9l2.5-7.4h4.6l1.4,17.5h-4.3
		l-0.5-7.9c-0.1-1.3,0-2.9,0-2.9l0,0c0,0-0.6,1.8-1,2.9l-1.8,5.1h-3.7l-1.6-5.1c-0.4-1.1-1-2.9-1-2.9l0,0c0,0,0.1,1.6,0,2.9
		l-0.5,7.9h-4.3L-75.5,91.5z"/>
	
		<linearGradient id="SVGID_9_" gradientUnits="userSpaceOnUse" x1="-47.2" y1="215.2437" x2="-47.2" y2="198.6146" gradientTransform="matrix(1 0 0 -1 0 304)">
		<stop  offset="0" style="stop-color:#01B99F"/>
		<stop  offset="1" style="stop-color:#02CAAE"/>
	</linearGradient>
	<path class="st11" d="M-55.2,91.5h4.6l2.5,7.4c0.4,1.1,0.9,2.9,0.9,2.9l0,0c0,0,0.5-1.8,0.9-2.9l2.5-7.4h4.6l1.4,17.5h-4.3
		l-0.5-7.9c-0.1-1.3,0-2.9,0-2.9l0,0c0,0-0.6,1.8-1,2.9l-1.8,5.1H-49l-1.8-5.1c-0.4-1.1-1-2.9-1-2.9l0,0c0,0,0.1,1.6,0,2.9l-0.5,7.9
		h-4.3L-55.2,91.5z"/>
</g>
</svg>
